<?xml version="1.0" encoding="UTF-8"?>
<svg width="752pt" height="752pt" version="1.1" viewBox="0 0 752 752" xmlns="http://www.w3.org/2000/svg">
 <g>
  <rect width="752" height="752" fill="#6a7c93"/>
  <path d="m394.32 265.26c-4.8828-2.3789-10.363-3.75-16.16-3.75-5.7812 0-11.238 1.3633-16.109 3.7383-17.176 3.5664-48.219 18.449-48.219 50.887v63.684c0 6.5078 5.2695 7.0391 11.773 7.0391 6.4922 0 11.766-0.53516 11.766-7.0391l-0.003907-63.684c0-4.8906 1.5156-8.9492 3.7852-12.359v87.344 0.16406 173.23c0 8.3594 6.7812 15.137 15.133 15.137 8.3633 0 15.133-6.7773 15.133-15.137v-132.13c2.1914 0.40234 4.4414 0.63281 6.7422 0.63281 2.2695 0 4.4648-0.22656 6.6094-0.62109v131.12c0 8.3594 6.793 15.137 15.133 15.137 8.3711 0 15.148-6.7773 15.148-15.137l-0.003906-165.28c0.027343-0.73438 0.097656-1.4648 0.097656-2.2148l0.003906-92.184c2.2695 3.3984 3.7461 7.4336 3.7461 12.301v63.684c0 6.5078 5.2617 7.0391 11.773 7.0391 6.5039 0 11.773-5.2695 11.773-11.773l-0.003906-58.949c0.015625-32.387-30.922-47.273-48.117-50.875z" fill="#f4bb16"/>
  <path d="m413 214.56h-3.0742c0.03125-0.15234 0.089843-0.29297 0.089843-0.44922 0-17.73-14.422-32.156-32.141-32.156-17.73 0-32.152 14.426-32.152 32.156 0 0.15625 0.058594 0.29688 0.09375 0.44922h-2.543c-1.1641 0-2.0977 0.9375-2.0977 2.0938s0.93359 2.0938 2.0977 2.0938h69.727c1.1562 0 2.0898-0.9375 2.0898-2.0938-0.003906-1.1562-0.9375-2.0938-2.0898-2.0938zm-63.094-0.44922c0-10.461 5.7812-19.582 14.309-24.379v5.4023c0 1.1602 0.93359 2.0938 2.0898 2.0938 1.1602 0 2.0938-0.93359 2.0938-2.0938v-7.3008c2.9648-1.0664 6.1367-1.6797 9.4688-1.6797 3.375 0 6.5977 0.62891 9.5977 1.7344v7.25c0 1.1602 0.93359 2.0938 2.0898 2.0938s2.0938-0.93359 2.0938-2.0938v-5.3125c8.4492 4.8164 14.164 13.895 14.164 24.293 0 0.15625 0.058594 0.29688 0.09375 0.44922l-56.094-0.003906c0.039063-0.15625 0.09375-0.29688 0.09375-0.45312z" fill="#f4bb16"/>
  <path d="m408.16 223.34c0 16.578-13.445 30.023-30.023 30.023s-30.02-13.441-30.02-30.023z" fill="#f4bb16"/>
  <path d="m429.88 359.58 28.027-13.355 27.051-36.309c1.6328-9.3945 2.9297-15.418 3.1133-16.25 4.3008-19.652 23.746-32.109 43.371-27.805 19.66 4.3008 32.105 23.719 27.805 43.371-3.7852 17.297-12.578 69.918-7.9297 105.25 1.6797 12.797-3.5156 24.887-12.703 32.621v106.79c0 12.934-10.48 23.418-23.418 23.418-12.93 0-23.418-10.484-23.418-23.418v-106.78c-6.7266-5.6484-11.453-13.719-12.691-23.121-2.5938-19.672-2.2695-41.531-0.75-61.645l-1.4883 2c-1.2695 1.6953-2.9258 3.0586-4.8359 3.9727l-30.934 14.742c-1.8047 0.86328-3.7109 1.2695-5.582 1.2695-4.8633 0-9.5273-2.7383-11.766-7.418-3.0898-6.4844-0.33203-14.246 6.1484-17.344z" fill="#f4bb16"/>
  <path d="m554.8 216.7h-3.0742c0.03125-0.15234 0.089844-0.29297 0.089844-0.44922 0-17.73-14.422-32.156-32.141-32.156-17.73 0-32.152 14.426-32.152 32.156 0 0.15625 0.058594 0.29688 0.09375 0.44922h-2.5352c-1.1641 0-2.0977 0.9375-2.0977 2.0938s0.93359 2.0938 2.0977 2.0938h69.727c1.1562 0 2.0898-0.9375 2.0898-2.0938s-0.9375-2.0938-2.0977-2.0938zm-63.09-0.45312c0-10.461 5.7812-19.582 14.309-24.379v5.4023c0 1.1602 0.93359 2.0938 2.0898 2.0938 1.1602 0 2.0938-0.93359 2.0938-2.0938v-7.3008c2.9648-1.0664 6.1367-1.6797 9.4688-1.6797 3.375 0 6.5977 0.62891 9.5977 1.7344v7.25c0 1.1602 0.93359 2.0938 2.0898 2.0938s2.0938-0.93359 2.0938-2.0938v-5.3125c8.4492 4.8164 14.164 13.895 14.164 24.293 0 0.15625 0.058594 0.29688 0.09375 0.44922h-56.09c0.03125-0.15625 0.089843-0.30078 0.089843-0.45703z" fill="#f4bb16"/>
  <path d="m549.96 225.47c0 16.578-13.445 30.023-30.023 30.023s-30.02-13.441-30.02-30.023z" fill="#f4bb16"/>
  <path d="m322.47 361.52-28.027-13.355-27.051-36.309c-1.6328-9.3945-2.9297-15.418-3.1133-16.25-4.3008-19.652-23.746-32.109-43.371-27.805-19.66 4.3008-32.105 23.719-27.805 43.371 3.7852 17.297 12.578 69.918 7.9297 105.25-1.6797 12.797 3.5156 24.887 12.703 32.621v106.79c0 12.934 10.48 23.418 23.418 23.418 12.93 0 23.418-10.484 23.418-23.418v-106.78c6.7266-5.6484 11.453-13.719 12.691-23.121 2.5938-19.672 2.2695-41.531 0.75-61.645l1.4883 2c1.2695 1.6953 2.9258 3.0586 4.8359 3.9727l30.934 14.742c1.8047 0.86328 3.7109 1.2695 5.582 1.2695 4.8633 0 9.5273-2.7383 11.766-7.418 3.0898-6.4883 0.33594-14.25-6.1484-17.344z" fill="#f4bb16"/>
  <path d="m195.46 220.73c0 1.1602 0.93359 2.0938 2.0898 2.0938h69.727c1.1641 0 2.0977-0.9375 2.0977-2.0938s-0.93359-2.0938-2.0977-2.0938h-2.5352c0.039063-0.15234 0.09375-0.29297 0.09375-0.44922 0-17.73-14.422-32.156-32.152-32.156-17.723 0-32.141 14.426-32.141 32.156 0 0.15625 0.058594 0.29688 0.089844 0.44922h-3.0742c-1.1602 0.003907-2.0977 0.93359-2.0977 2.0938zm65.281-2.0898h-56.102c0.039062-0.15234 0.09375-0.29297 0.09375-0.44922 0-10.398 5.7148-19.477 14.164-24.293v5.3125c0 1.1602 0.9375 2.0938 2.0938 2.0938s2.0898-0.93359 2.0898-2.0938v-7.25c3.0078-1.1016 6.2227-1.7344 9.5977-1.7344 3.3281 0 6.5039 0.61719 9.4688 1.6797v7.3008c0 1.1602 0.93359 2.0938 2.0938 2.0938 1.1562 0 2.0898-0.93359 2.0898-2.0938v-5.4023c8.5273 4.8008 14.309 13.918 14.309 24.379 0.003906 0.16016 0.0625 0.30469 0.10156 0.45703z" fill="#f4bb16"/>
  <path d="m202.39 227.41c0 16.578 13.445 30.023 30.023 30.023 16.578 0 30.02-13.441 30.02-30.023z" fill="#f4bb16"/>
 </g>
</svg>
